<?xml version="1.0" encoding="utf-8"?>
<!-- Generator: Adobe Illustrator 21.1.0, SVG Export Plug-In . SVG Version: 6.00 Build 0)  -->
<svg version="1.1" id="Layer_1" xmlns="http://www.w3.org/2000/svg" xmlns:xlink="http://www.w3.org/1999/xlink" x="0px" y="0px"
	 viewBox="0 0 722.1 172.2" style="enable-background:new 0 0 722.1 172.2;" xml:space="preserve">
<style type="text/css">
	.st0{fill:#F8333C;}
	.st1{fill:#525252;}
	.st2{enable-background:new    ;}
</style>
<path class="st0" d="M69.9,53.3c-18.1-0.1-33.1,12.1-35.5,29.5c4,0,33.2,0,33.2,0c2.7,0,4.9,3.1,5,5.7c0.1,2.8-2.1,6.1-4.9,6.1
	c0,0-22.8,0-33.3,0c2.3,17.4,17.2,29.8,35.2,29.8c19.5,0,35.3-15.7,35.6-35.1C105.5,69.5,89.8,53.4,69.9,53.3z"/>
<path class="st1" d="M136.8,68.1c4.9-9.7,13.5-14.8,24.8-14.8v14.8c-14.4-0.8-23.6,7.7-24.8,20v37.5h-15.5V53.1h15.5V68.1z"/>
<path class="st1" d="M218.7,116.9c-5.1,6.3-13.4,9.4-23.8,9.4c-15.5,0-25.2-9.6-25.2-22.3c0-13.1,9.9-21.5,27.1-21.6h21.7v-2.2
	c0-9-5.8-15.4-17.1-15.4c-6.9,0-20.4-1.4-27.6,3.4V53.3c13.5,0,17.3,0,30.9,0c18.5,0,28.9,9.5,29,25.2l0.1,47.1h-15.3v-8.7H218.7z
	 M218.6,100.4v-6.6h-19.5c-10.1,0-14.8,2.7-14.8,9.6c0,6.5,5.3,10.7,13.9,10.7C209.2,114,217.7,108.2,218.6,100.4z"/>
<g class="st2">
	<path class="st1" d="M321,125.6h-15.5v-12.3c-5.1,8.4-13.8,13-25.2,13c-20.7,0-34.4-15-34.4-36.9c0-21.6,13.9-36.3,34.2-36.3
		c11.6,0,20.2,4.7,25.5,13.1V25.5h15.5v100.1H321z M305.5,90c0-13.9-9-23.6-22-23.6s-22,9.9-22.1,23.6c0.1,13.6,9,23.4,22.1,23.4
		C296.4,113.3,305.5,103.6,305.5,90z"/>
</g>
<g class="st2">
	<path class="st1" d="M358,33.3c0,5.4-3.9,9.3-9,9.3s-9-3.9-9-9.3c0-5.5,3.9-9.4,9-9.4S358,27.8,358,33.3z M341.3,125.6V53.1h15.4
		v72.5H341.3z"/>
	<path class="st1" d="M444.8,125.6h-15.5v-14c-4.9,10-13.9,14.4-25.6,14.6c-16.5,0-26.3-10.5-26.3-27.7V53.2h15.5v41
		c0,10.8,6.3,17.4,16.7,17.4c12.4-0.3,19.7-9.9,19.7-22.4v-36h15.5L444.8,125.6z"/>
	<path class="st1" d="M508.9,60.4l-5.7,11.5c-6.3-3.9-14.3-6.3-20.7-6.3c-6.1,0-10.5,2-10.5,7.2c0,13.2,38.2,6.1,38.1,32.1
		c0,14.7-13.1,21.3-27.5,21.3c-10.5,0-21.7-3.5-28.9-10l5.5-11.1c6.2,5.5,16.2,8.9,24,8.9c6.6,0,11.7-2.3,11.7-7.7
		c0-14.7-37.8-6.5-37.7-32.4c0-14.6,12.7-20.8,26.5-20.8C492.9,53.1,502.5,55.8,508.9,60.4z"/>
</g>
<g>
	<path class="st0" d="M534.8,80.8l-3.3,7.6h-6l14.9-33.7h5.8L561,88.4h-6l-3.3-7.6H534.8z M543.2,60.7l-6.4,15h12.7L543.2,60.7z"/>
	<path class="st0" d="M585.9,83.3v5.1h-20.3V54.6h5.7v28.6h14.6V83.3z"/>
	<path class="st0" d="M604.9,54.6c8.5,0,13.4,4.2,13.4,11.5c0,7.6-4.9,12.1-13.4,12.1h-7.7v10.2h-5.8V54.6H604.9z M597,73.2h7.6
		c5.1,0,8.1-2.2,8.1-6.8c0-4.5-3-6.5-8.1-6.5H597V73.2z"/>
	<path class="st0" d="M647.5,88.5V74.4h-17.9v14h-5.7V54.6h5.7v14.6h17.9V54.6h5.7v33.7h-5.7V88.5z"/>
	<path class="st0" d="M666.8,80.8l-3.3,7.6h-6l14.9-33.7h5.8L693,88.4h-6l-3.3-7.6H666.8z M675.2,60.7l-6.4,15h12.7L675.2,60.7z"/>
</g>
</svg>
