<?xml version="1.0" encoding="utf-8"?>
<!-- Generator: Adobe Illustrator 21.1.0, SVG Export Plug-In . SVG Version: 6.00 Build 0)  -->
<svg version="1.1" id="Layer_1" xmlns="http://www.w3.org/2000/svg" xmlns:xlink="http://www.w3.org/1999/xlink" x="0px" y="0px"
	 viewBox="0 0 515.9 107.8" style="enable-background:new 0 0 515.9 107.8;" xml:space="preserve">
<style type="text/css">
	.st0 {
		fill:none; 
		stroke:#F8333C;
		stroke-width:5.8413;
		stroke-miterlimit:10;
		}
	.st1 {
		fill:#F8333C;
		}
</style>
<path class="st0" d="M90.2,56.6"/>
<path d="M94.4,44c3.6-7.1,9.9-10.9,18.3-10.9V44c-10.6-0.6-17.4,5.7-18.3,14.7v27.6H83V33.5h11.4V44z"/>
<path d="M151.7,79.9c-3.8,4.7-9.8,7-17.5,7c-11.4,0-18.6-7-18.6-16.4c0-9.6,7.2-15.8,20-15.9h16V53c0-6.7-4.3-10.6-12.6-10.6
	c-5.1,0-14.5-0.9-20.3,1.6l0-10.9c10.4,0,12.7,0,22.7,0c13.6,0,21.3,7,21.4,18.6l0.1,34.7h-11.2V79.9z M151.6,67.8v-4.9h-14.3
	c-7.4,0-10.9,2-10.9,7.1c0,4.8,3.9,7.8,10.2,7.8C144.8,77.8,151,73.5,151.6,67.8z"/>
<path d="M225.6,86.3h-11.4v-9c-3.8,6.2-10.1,9.5-18.6,9.5c-15.2,0-25.3-11-25.3-27.1c0-15.9,10.2-26.7,25.1-26.7
	c8.5,0,14.9,3.5,18.8,9.6v-30h11.4V86.3z M214.1,60.1c0-10.2-6.7-17.4-16.2-17.4s-16.2,7.2-16.3,17.4c0.1,10,6.7,17.2,16.3,17.2
	C207.5,77.3,214.1,70.1,214.1,60.1z"/>
<path d="M253.3,18.4c0,4-2.9,6.9-6.7,6.9s-6.7-2.9-6.7-6.9c0-4.1,2.9-7,6.7-7S253.3,14.3,253.3,18.4z M240.9,86.3V33.5h11.3v52.8
	H240.9z"/>
<path d="M315.1,86.3h-11.4V76c-3.6,7.3-10.2,10.6-18.9,10.7c-12.1,0-19.4-7.7-19.4-20.4V33.5h11.4v29.7c0,7.9,4.7,12.8,12.3,12.8
	c9.1-0.2,14.5-7.2,14.5-16.5v-26h11.4V86.3z"/>
<path d="M365.2,38.4l-4.2,8.4c-4.7-2.9-10.5-4.7-15.2-4.7c-4.5,0-7.7,1.5-7.7,5.3c0,9.7,28.1,4.5,28,23.6c0,10.8-9.6,15.7-20.3,15.7
	c-7.7,0-16-2.6-21.3-7.3l4.1-8.1c4.6,4.1,11.9,6.6,17.7,6.6c4.9,0,8.6-1.7,8.6-5.7c0-10.8-27.8-4.8-27.7-23.8
	c0-10.7,9.3-15.3,19.5-15.3C353.4,33,360.5,35,365.2,38.4z"/>
<path class="st1" d="M58.7,82.9c7.3-4.9,12.1-13.2,12-22.7c0-15-12.2-27.1-27.2-27.1c-12.7,0-23.3,8.7-26.4,20.4
	c-0.3,1.2,0.3,2.5,1.4,3c0.5,0.2,1,0.3,1.5,0.2c2.4,0,21.9,0,21.9,0c1,0,1.9,0.9,1.9,1.9l0,3.5c0,1-0.9,1.9-1.9,1.9
	c0,0-19.2,0-21.9,0c-0.5-0.1-1.1-0.1-1.6,0.1c-1.1,0.5-1.7,1.8-1.4,3c3,11.8,13.8,20.5,26.5,20.4C49.2,87.5,54.4,85.8,58.7,82.9z"/>
<g>
	<path class="st1" d="M379.3,50.7l-2.4,5.6h-4.4l11-24.9h4.3l10.9,24.9h-4.5l-2.4-5.6H379.3z M385.5,35.9L380.8,47h9.4L385.5,35.9z"
		/>
	<path class="st1" d="M417,52.6v3.8h-15V31.4h4.2v21.1H417z"/>
	<path class="st1" d="M431,31.4c6.3,0,9.9,3.1,9.9,8.5c0,5.6-3.6,8.9-9.9,8.9h-5.7v7.5H421V31.4H431z M425.2,45.1h5.6
		c3.8,0,6-1.6,6-5c0-3.3-2.2-4.8-6-4.8h-5.6V45.1z"/>
	<path class="st1" d="M462.4,56.4V46h-13.2v10.3H445V31.4h4.2v10.8h13.2V31.4h4.2v24.9H462.4z"/>
	<path class="st1" d="M476.7,50.7l-2.4,5.6h-4.4l11-24.9h4.3l10.9,24.9h-4.5l-2.4-5.6H476.7z M482.9,35.9L478.2,47h9.4L482.9,35.9z"
		/>
</g>
</svg>
