<?xml version="1.0" encoding="utf-8"?>
<!-- Generator: Adobe Illustrator 21.1.0, SVG Export Plug-In . SVG Version: 6.00 Build 0)  -->
<svg version="1.1" id="Layer_1" xmlns="http://www.w3.org/2000/svg" xmlns:xlink="http://www.w3.org/1999/xlink" x="0px" y="0px"
	 viewBox="0 0 550 200" style="enable-background:new 0 0 550 200;" xml:space="preserve">
<style type="text/css">
	.st0{fill:#525252;}
	.st1{enable-background:new    ;}
	<!-- .st2{

			transition: transform 1s linear;
			}
	.st2:hover{
			fill:green;
			transform: rotate(-10deg);
			} -->

			.st2 {
					fill:#F8333C;

			}
			
</style>
<path class="st0" d="M142.7,85.9c4.9-9.7,13.5-14.8,24.8-14.8v14.8c-14.4-0.8-23.6,7.7-24.8,20v37.5h-15.5l0-72.5h15.5L142.7,85.9z"
	/>
<path class="st0" d="M224.6,134.7c-5.1,6.3-13.4,9.4-23.8,9.4c-15.5,0-25.2-9.6-25.2-22.3c0-13.1,9.9-21.5,27.1-21.6h21.7v-2.2
	c0-9-5.8-15.4-17.1-15.4c-6.9,0-20.4-1.4-27.6,3.4l0-14.9c13.5,0,17.3,0,30.9,0c18.5,0,28.9,9.5,29,25.2l0.1,47.1h-15.3V134.7z
	 M224.5,118.2v-6.6H205c-10.1,0-14.8,2.7-14.8,9.6c0,6.5,5.3,10.7,13.9,10.7C215.1,131.8,223.6,126,224.5,118.2z"/>
<g class="st1">
	<path class="st0" d="M326.9,143.4h-15.5v-12.3c-5.1,8.4-13.8,13-25.2,13c-20.7,0-34.4-15-34.4-36.9c0-21.6,13.9-36.3,34.2-36.3
		c11.6,0,20.2,4.7,25.5,13.1V43.3h15.5V143.4z M311.4,107.8c0-13.9-9-23.6-22-23.6c-13,0-22,9.9-22.1,23.6
		c0.1,13.6,9,23.4,22.1,23.4C302.3,131.1,311.4,121.4,311.4,107.8z"/>
</g>
<g class="st1">
	<path class="st0" d="M363.9,51.1c0,5.4-3.9,9.3-9,9.3s-9-3.9-9-9.3c0-5.5,3.9-9.4,9-9.4S363.9,45.6,363.9,51.1z M347.2,143.4
		l0-72.5h15.4l0,72.5H347.2z"/>
	<path class="st0" d="M450.7,143.4h-15.5v-14c-4.9,10-13.9,14.4-25.6,14.6c-16.5,0-26.3-10.5-26.3-27.7l0-45.3h15.5l0,41
		c0,10.8,6.3,17.4,16.7,17.4c12.4-0.3,19.7-9.9,19.7-22.4l0-36h15.5L450.7,143.4z"/>
	<path class="st0" d="M514.8,78.2l-5.7,11.5c-6.3-3.9-14.3-6.3-20.7-6.3c-6.1,0-10.5,2-10.5,7.2c0,13.2,38.2,6.1,38.1,32.1
		c0,14.7-13.1,21.3-27.5,21.3c-10.5,0-21.7-3.5-28.9-10l5.5-11.1c6.2,5.5,16.2,8.9,24,8.9c6.6,0,11.7-2.3,11.7-7.7
		c0-14.7-37.8-6.5-37.7-32.4c0-14.6,12.7-20.8,26.5-20.8C498.8,70.9,508.4,73.6,514.8,78.2z"/>
</g>
<path class="st2" d="M90,136.2c9.8-6.6,16.2-17.8,16.2-30.5c0-20.2-16.4-36.5-36.6-36.5c-17.1,0-31.4,11.7-35.5,27.5
	c-0.4,1.7,0.4,3.3,1.8,4c0.6,0.3,1.4,0.4,2.1,0.2c3.2,0,29.5,0,29.5,0c1.4,0,2.6,1.1,2.6,2.6v4.7c0,1.4-1.1,2.6-2.6,2.6
	c0,0-25.9,0-29.4,0c-0.7-0.2-1.5-0.1-2.2,0.2c-1.4,0.7-2.3,2.4-1.8,4.1c4.1,15.9,18.5,27.6,35.7,27.5
	C77.2,142.4,84.2,140.1,90,136.2z">
		<animateTransform attributeName="rotate"
			attributeType="XML"
			type="rotate"
			from="0 50 50"
			to="360 50 50"
			dur="10s"
			repeatCount="indefinite"
			/>
	</path>
</svg>
